<svg width="200" height="200" viewBox="0 0 200 200" xmlns="http://www.w3.org/2000/svg">
  <!-- Background circle -->
  <circle cx="100" cy="100" r="100" fill="#8B5F65"/>
  
  <!-- Face -->
  <circle cx="100" cy="85" r="32" fill="#FDBCB4"/>
  
  <!-- Hair -->
  <path d="M68 65 Q100 45 132 65 Q132 75 125 85 Q115 90 100 88 Q85 90 75 85 Q68 75 68 65" fill="#4A4A4A"/>
  
  <!-- Eyes -->
  <circle cx="88" cy="78" r="3" fill="#333"/>
  <circle cx="112" cy="78" r="3" fill="#333"/>
  <circle cx="89" cy="77" r="1" fill="#fff"/>
  <circle cx="113" cy="77" r="1" fill="#fff"/>
  
  <!-- Eyebrows -->
  <path d="M83 72 L93 70" stroke="#333" stroke-width="2"/>
  <path d="M107 70 L117 72" stroke="#333" stroke-width="2"/>
  
  <!-- Nose -->
  <ellipse cx="100" cy="87" rx="2" ry="3" fill="#F4A688"/>
  
  <!-- Mouth -->
  <path d="M94 95 Q100 98 106 95" stroke="#C14242" stroke-width="2" fill="none"/>
  
  <!-- Blazer -->
  <rect x="75" y="145" width="50" height="55" fill="#2F4F4F"/>
  <rect x="85" y="145" width="30" height="55" fill="#fff"/>
  
  <!-- Shoulders -->
  <path d="M65 160 Q100 140 135 160 L135 200 L65 200 Z" fill="#2F4F4F"/>
  
  <!-- Necklace -->
  <circle cx="100" cy="125" r="3" fill="#FFD700"/>
</svg>