<svg width="200" height="200" viewBox="0 0 200 200" xmlns="http://www.w3.org/2000/svg">
  <!-- Background circle -->
  <circle cx="100" cy="100" r="100" fill="#2C5F41"/>
  
  <!-- Face -->
  <circle cx="100" cy="85" r="35" fill="#FDBCB4"/>
  
  <!-- Hair -->
  <path d="M65 70 Q100 50 135 70 Q135 60 100 55 Q65 60 65 70" fill="#8B4513"/>
  
  <!-- Eyes -->
  <circle cx="88" cy="78" r="3" fill="#333"/>
  <circle cx="112" cy="78" r="3" fill="#333"/>
  
  <!-- Nose -->
  <ellipse cx="100" cy="88" rx="2" ry="3" fill="#F4A688"/>
  
  <!-- Mouth -->
  <path d="M92 95 Q100 100 108 95" stroke="#333" stroke-width="2" fill="none"/>
  
  <!-- Suit/shirt -->
  <rect x="75" y="145" width="50" height="55" fill="#1a1a1a"/>
  <rect x="85" y="145" width="30" height="55" fill="#fff"/>
  <rect x="95" y="145" width="10" height="25" fill="#FFD700"/>
  
  <!-- Shoulders -->
  <path d="M65 160 Q100 140 135 160 L135 200 L65 200 Z" fill="#1a1a1a"/>
</svg>