<svg width="200" height="200" viewBox="0 0 200 200" xmlns="http://www.w3.org/2000/svg">
  <!-- Background circle -->
  <circle cx="100" cy="100" r="100" fill="#4A5D23"/>
  
  <!-- Face -->
  <circle cx="100" cy="85" r="36" fill="#FDBCB4"/>
  
  <!-- Hair (balding) -->
  <path d="M70 68 Q100 55 130 68 Q125 63 100 60 Q75 63 70 68" fill="#A0522D"/>
  <path d="M72 68 Q80 65 88 68" fill="#A0522D"/>
  <path d="M112 68 Q120 65 128 68" fill="#A0522D"/>
  
  <!-- Glasses -->
  <circle cx="88" cy="78" r="12" fill="none" stroke="#333" stroke-width="2"/>
  <circle cx="112" cy="78" r="12" fill="none" stroke="#333" stroke-width="2"/>
  <line x1="100" y1="78" x2="100" y2="78" stroke="#333" stroke-width="2"/>
  
  <!-- Eyes behind glasses -->
  <circle cx="88" cy="78" r="3" fill="#333"/>
  <circle cx="112" cy="78" r="3" fill="#333"/>
  
  <!-- Nose -->
  <ellipse cx="100" cy="90" rx="3" ry="4" fill="#F4A688"/>
  
  <!-- Beard -->
  <path d="M85 98 Q100 110 115 98 Q115 105 100 108 Q85 105 85 98" fill="#654321"/>
  
  <!-- Mouth -->
  <path d="M94 100 Q100 103 106 100" stroke="#333" stroke-width="1.5" fill="none"/>
  
  <!-- Vest -->
  <rect x="75" y="145" width="50" height="55" fill="#8B4513"/>
  <rect x="85" y="145" width="30" height="55" fill="#F5F5DC"/>
  
  <!-- Shoulders -->
  <path d="M65 160 Q100 140 135 160 L135 200 L65 200 Z" fill="#8B4513"/>
</svg>